<?xml version="1.0" encoding="UTF-8"?>
<!DOCTYPE svg PUBLIC "-//W3C//DTD SVG 1.1//EN"
  "http://www.w3.org/Graphics/SVG/1.1/DTD/svg11.dtd">
<!-- Created with Inkpad (http://www.taptrix.com/) --><svg xmlns:inkpad="http://taptrix.com/inkpad/svg_extensions" height="707pt" xmlns:xlink="http://www.w3.org/1999/xlink" xmlns="http://www.w3.org/2000/svg" width="814pt" version="1.1" viewBox="0,0,814,707">
<defs/>
<g id="Untitled" inkpad:layerName="Untitled">
<path d="M681+53.5C732.5+104+739.5+201.5+765.5+291C791+380+835+461+804+505.5C773+550+667.5+558.5+594.5+573C521.5+587.5+480.5+608.5+416.5+641C352+673.5+264+718.5+187.5+704.5C111.5+691+47.5+619+22.5+536C-2.5+453+11+358.5+46.5+278C82+198+140+131.5+209+87C278.5+42+359+19+447+9C535-0.500008+630+3.00002+681+53.5Z" opacity="1" fill="#8a3ffc"/>
</g>
</svg>
